<?xml version="1.0" standalone="no"?><!DOCTYPE svg PUBLIC "-//W3C//DTD SVG 1.1//EN" "http://www.w3.org/Graphics/SVG/1.1/DTD/svg11.dtd"><svg t="1567740362423" class="icon" viewBox="0 0 1404 1024" version="1.1" xmlns="http://www.w3.org/2000/svg" p-id="4739" data-spm-anchor-id="a313x.7781069.0.i4" width="87.75" height="64" xmlns:xlink="http://www.w3.org/1999/xlink"><defs><style type="text/css"></style></defs><path d="M282.13131 824.758857c-40.023771 0-76.302629-33.206857-76.302629-73.552457 0-40.3456 32.768-73.728 76.361143-73.728 43.768686 0 76.653714 33.206857 76.653714 73.669486 0 40.462629-36.395886 73.581714-76.361143 73.581714l-0.351085 0.058514z m937.018514-401.2032c-7.899429-58.865371-43.885714-106.788571-91.282286-143.594057l-18.432-14.833371-14.862628 18.402742c-28.906057 33.206857-40.374857 92.16-36.864 136.162743 3.510857 33.353143 14.043429 66.413714 32.416914 92.16-14.862629 7.753143-33.236114 14.862629-47.396571 22.381715-31.773257 10.298514-64.950857 15.301486-98.304 14.833371H5.709824l-3.510857 21.942857a419.2256 419.2256 0 0 0 32.885028 210.066286l14.277486 25.775543v3.569371c87.771429 147.309714 244.004571 213.577143 414.222629 213.577143 327.358171 0 595.850971-143.5648 723.119543-452.842057 83.382857 3.657143 167.614171-18.402743 207.169828-99.445029l10.532572-18.373485-17.554286-11.117715c-47.396571-29.2864-112.347429-33.206857-166.765714-18.373485l-1.082515 0.117028 0.117029-0.4096zM750.538167 364.690286h-142.101943v143.5648h142.189714v-143.681829l-0.087771 0.175543v-0.058514z m0-180.516572h-142.101943v143.5648h142.189714V184.32l-0.087771-0.175543z m0-184.173714h-142.101943v143.5648h142.189714V0h-0.087771z m173.787428 364.690286h-141.253485v143.5648h141.604571v-143.681829l-0.4096 0.175543 0.058514-0.058514z m-526.570057 0H256.560567v143.5648h141.7216v-143.681829l-0.585143 0.175543 0.058514-0.058514z m177.327543 0h-140.434286v143.5648h141.253486v-143.681829l-0.877714 0.175543 0.058514-0.058514z m-352.8704 0H81.983195v143.5648h142.101943v-143.681829l-1.755428 0.175543-0.117029-0.058514z m352.8704-180.516572h-140.434286v143.5648h141.253486V184.32l-0.877714-0.175543h0.058514z m-178.176 0h-140.141714v143.5648H397.989595V184.32l-0.936228-0.175543h-0.175543z" p-id="4740" fill="#8a8a8a"></path></svg>