<?xml version="1.0" standalone="no"?><!DOCTYPE svg PUBLIC "-//W3C//DTD SVG 1.1//EN" "http://www.w3.org/Graphics/SVG/1.1/DTD/svg11.dtd"><svg t="1568018641245" class="icon" viewBox="0 0 1024 1024" version="1.1" xmlns="http://www.w3.org/2000/svg" p-id="1985" data-spm-anchor-id="a313x.7781069.0.i1" xmlns:xlink="http://www.w3.org/1999/xlink" width="64" height="64"><defs><style type="text/css"></style></defs><path d="M59.564 399.464L512 987.428 16.148 619.398c-13.712-10.284-19.424-27.992-14.282-43.986l57.698-175.948z m150.81-349.612c-6.284-17.708-31.418-17.708-37.702 0L59.564 399.464h263.922L210.374 49.852z m113.112 349.612L512 987.428l188.514-587.964H323.486z m698.648 175.948l-57.698-175.948L512 987.428l495.852-368.03c13.71-10.284 19.422-27.992 14.282-43.986z m-170.808-525.56c-6.284-17.708-31.418-17.708-37.702 0l-113.11 349.612h263.922L851.326 49.852z" p-id="1986" fill="#8a8a8a"></path></svg>