<?xml version="1.0" standalone="no"?><!DOCTYPE svg PUBLIC "-//W3C//DTD SVG 1.1//EN" "http://www.w3.org/Graphics/SVG/1.1/DTD/svg11.dtd"><svg t="1567749999297" class="icon" viewBox="0 0 1024 1024" version="1.1" xmlns="http://www.w3.org/2000/svg" p-id="4896" width="64" height="64" xmlns:xlink="http://www.w3.org/1999/xlink"><defs><style type="text/css"></style></defs><path d="M316.546 219.234l-12.487-26.057c-5.424-7.659-13.129-13.394-17.537-22.32h-1.237v-1.252a90.215 90.215 0 0 1 22.514-2.471c4.514 4.323 11.401 7.253 14.979 12.394 2.694 3.867 3.145 7.927 6.271 11.2 0.022 13.203-3.492 21.863-11.266 27.272l-1.237 1.234z m560.081 558.383c-20.696-13.024-44.73-20.452-66.236-33.497-12.115-7.322-23.737-16.348-35.006-24.814-10.35-7.75-21.927-22.466-28.788-33.502-3.538-5.759-4.254-12.702-8.726-17.37 1.322-10.138 14.326-10.229 22.49-13.634 28.727-12.028 62.308-16.11 106.274-14.918-1.343-11.2-28.613-24.799-37.501-31.001-17.755-12.42-36.103-25.898-55.012-37.257-9.9-5.902-27.058-10.483-37.499-14.873-14.936-6.25-47.76-12.315-56.272-23.578-16.174-21.428-27.315-47.44-38.751-73.208-11.465-25.815-25.99-53-37.538-79.418-5.69-13.068-8.467-24.881-14.982-37.233-40.293-76.663-99.214-140.946-171.255-186.103-23.663-14.831-49.72-28.462-78.789-37.236-16.433-4.95-36.144-2.166-53.751-6.184h-11.266c-9.833-2.885-18.087-13.243-26.272-18.63-16.957-11.174-33.693-19.04-53.738-27.287-7.554-3.126-27.745-10.51-34.993-4.973-4.278 1.39-6.168 3.174-7.511 7.447-4.236 6.338-0.369 16.195 2.495 22.32 8.03 17.344 19.626 27.872 29.995 42.207 9.358 12.92 20.762 27.66 27.509 42.203 14.111 30.423 20.364 64.18 33.743 94.315 5.164 11.51 12.577 24.71 20.016 34.739 6.012 8.078 16.766 14.201 19.977 24.796 6.837 10.642-9.99 46.83-13.73 58.319-14.384 44.44-11.35 106.579 4.998 145.2 6.468 15.242 12.588 33.045 30.03 37.188 1.26-0.953 0.276-0.433 2.49-1.213 3.691-29.749 4.994-58.401 14.981-81.895 6.272-14.716 18.17-24.775 26.272-37.235 5.945 3.389 5.876 13.291 8.721 19.868 7.39 16.977 15.027 35.407 23.775 52.106 18.347 34.974 38.47 68.563 61.27 99.259 8.07 10.921 18.95 22.753 28.719 32.288 4.19 4.035 9.276 6.123 12.527 11.137h1.242v1.263c-16.805-5.711-27.005-22.532-40.014-32.265-25.033-18.758-54.598-46.614-71.258-73.207l-22.487-44.662v-1.258c-3.129 4.14-2.15 8.681-3.755 14.889-7.079 27.31-1.54 58.25-26.264 68.234-28.226 11.42-48.767-18.365-57.5-32.256-28.437-45.251-35.775-121.259-16.242-182.415 4.326-13.57 4.762-30.224 12.488-40.948-1.264-9.618-9.138-12.373-13.761-18.584-7.485-10.183-14.045-22.145-19.998-33.52C216 268.753 208.099 242.327 199 218.016c-3.694-9.857-4.45-19.215-8.774-28.53-6.556-14.196-18.302-28.332-27.485-40.946-13.068-17.994-49.654-52.629-34.998-88.1 23.228-56.227 103.667-13.46 135.024 6.187 7.856 4.95 16.585 15.154 25.006 18.628l41.26 2.471c25.616 6.035 49.887 10.643 70.017 22.32 94.658 54.991 155.753 110.9 212.521 203.52 11.837 19.3 18.021 40.513 27.488 62.05a1586.25 1586.25 0 0 0 45.033 94.288c7.484 14.327 12.784 29.919 22.487 42.207 4.106 5.188 15.022 6.82 21.259 9.947 18.493 9.252 40.056 16.33 57.512 27.27 31.479 19.711 62.002 43.358 90.01 67 10.685 9.069 17.697 22.272 27.509 32.26v4.97c-8.75 2.474-17.506 4.974-26.267 7.423-19.411 4.998-36.195 3.692-54.99 8.682-11.177 2.999-25.402 7.391-37.518 8.731l1.261 1.216c7.123 19.756 45.423 36.195 62.528 48.417 21.426 15.263 41.596 33.652 57.491 54.579l16.261 16.15c3.695 5.281 4.708 12.272 8.758 17.375v1.213c-7.667-2.691-11.624-9.382-17.521-13.655-11.922-8.66-24.038-18.344-36.257-26.051l0.011-0.021z m-215.149 25.6h59.805c3.042 0 5.757 0.204 8.796 0.616 26.412 3.604 39.772 15.061 39.772 33.944v74.312c0 15.314-5.668 23.515-18.742 28.854l31.028 27.812h-36.578l-25.101-22.506-25.285 1.6h-33.697a69.97 69.97 0 0 1-18.515-2.62c-20.035-5.414-29.751-15.865-29.751-33.135V837.78c0-18.886 13.36-30.34 39.762-33.947a59.497 59.497 0 0 1 8.512-0.61h-0.006v-0.006z m-14.257 107.07c0 1.003 0.295 2.007 0.61 3.2 1.816 8.648 10.011 13.465 22.453 13.465h28.62l-26.287-23.563h36.577l22.934 20.553c4.227-2.24 7.009-5.664 7.988-10.043 0.292-1.003 0.292-2.006 0.292-3.012v-71.3c0-0.801 0-1.818-0.292-2.813-1.815-8.042-10.024-12.66-22.169-12.66h-47.66c-13.96 0-23.063 6.025-23.063 15.473v70.7h-0.003z m-145.89-86.281c-11.219 0.987-14.557 2.794-16.065 9.21-0.308 1.013-0.308 1.817-0.308 2.613v14.239c0 0.993 0 1.789 0.308 2.792 1.508 8.434 7.572 12.23 20.293 12.23h38.164c9.4 0 19.098 1.597 26.97 4.61 14.85 5.613 22.416 14.04 22.416 23.044V915.6c0 11.025-6.66 19.438-20.293 25.654-8.18 3.819-18.488 6.017-29.088 6.017h-90.562v-20.848h86.926c1.224 0 2.132-0.19 3.347-0.19 6.054-0.41 10.598-2.01 13.323-4.417 3.031-2.41 4.539-5.202 4.539-7.418v-18.23a7.41 7.41 0 0 0-2.408-5.613c-3.041-3.604-7.288-5.412-17.28-6.216-0.908-0.188-2.118-0.188-3.339-0.188h-32.702c-3.031 0-6.072-0.213-9.085-0.404-26.967-2.813-43.034-14.83-43.034-28.87v-18.233c0-16.027 8.195-25.266 26.964-31.07 6.065-1.81 12.72-2.612 25.457-2.612h88.458v20.847h-89.98c-0.906 0-2.114 0.213-3.024 0.213v-0.014l0.003-0.002zM379.02 990.985h-99.487v-21.039c0.17 0 99.395 0.03 99.644 0 20.282-2.13 17.88-12.134 17.88-15.499v-8.206h-66.94c-31.157-0.287-50.998-13.78-51.234-29.3-0.02-1.433 0.668-69.493-0.02-70.172h31.499v68.03c-0.284 3.689 1.194 12.368 18.455 12.644 8.801 0.132 67.953 0 68.5 0v-81h31.564c0.154 0-0.026 110.45-0.026 110.918 0.18 27.257-34.065 33.156-49.827 33.62h-0.008v0.004z m-157.87-167.186l-48.767 107.646c-5.749 13.026-13.331 17.636-28.775 17.636-15.451 0-23.334-4.61-29.08-17.634l-48.77-107.65v123.476H34.25V824.008c0-12.04 4.838-17.845 14.852-20.847 23.925-7.43 40.277-1.003 47.24 15.022L142.7 924.425l47.862-106.242c7.267-16.025 23.324-22.453 47.26-15.022 9.984 3.002 14.841 8.806 14.841 20.847v123.265h-31.51V823.8zM821.16 910.79c0 11.028 6.953 15.635 25.435 15.635h82.699v20.847h-82.099c-3.03-0.031-6.06-0.165-9.082-0.4-32.416-2.39-48.462-14.44-48.462-35.883V802.954h31.509v107.848-0.01z m146.136-8.004c12.267 0 23.228 9.273 23.228 23.047 0 13.77-10.96 23.05-23.228 23.05-12.253 0-23.209-9.278-23.209-23.05 0-13.771 10.961-23.047 23.21-23.047z m0 41.31c9.977 0 18.026-7.814 18.026-18.265 0-10.441-8.05-18.247-18.026-18.247-10.09 0-18.004 7.803-18.004 18.247 0 10.454 7.917 18.264 18.004 18.264z m11.025-23.85c0 4.783-3.097 6.76-7.174 7.193l7.617 11.553h-5.204l-6.943-11.383h-4.148v11.38h-4.446v-26.298h10.346c6.558 0 9.944 2.202 9.944 7.556h0.008z m-15.855-3.882v7.574h4.775c3.344 0 6.255-0.316 6.255-4.005 0-3.068-3.216-3.57-5.881-3.57h-5.149z" fill="#8a8a8a" p-id="4897"></path></svg>