<?xml version="1.0" standalone="no"?><!DOCTYPE svg PUBLIC "-//W3C//DTD SVG 1.1//EN" "http://www.w3.org/Graphics/SVG/1.1/DTD/svg11.dtd"><svg t="1567741075229" class="icon" viewBox="0 0 1024 1024" version="1.1" xmlns="http://www.w3.org/2000/svg" p-id="8180" width="64" height="64" xmlns:xlink="http://www.w3.org/1999/xlink"><defs><style type="text/css"></style></defs><path d="M363.52 990.72c-17.92 12.8-30.72 20.48-51.2 33.28-148.48-23.04-120.32-122.88-143.36-202.24 7.68-2.56 10.24-5.12 12.8-5.12 69.12 20.48 71.68 20.48 74.24-48.64 2.56-94.72 0-189.44 0-284.16 0-15.36 7.68-30.72 12.8-46.08l12.8 2.56v389.12c43.52-2.56 58.88 15.36 58.88 53.76 0 28.16 17.92 53.76 23.04 81.92 2.56 10.24 2.56 17.92 0 25.6z" p-id="8181" fill="#8a8a8a"></path><path d="M727.04 983.04c-33.28-2.56-66.56-10.24-97.28-7.68-38.4 2.56-48.64-17.92-43.52-46.08 5.12-35.84 17.92-69.12 28.16-107.52 17.92 33.28 35.84 38.4 61.44-2.56 2.56 28.16 5.12 48.64 7.68 69.12 10.24-5.12 17.92-7.68 25.6-10.24 23.04-5.12 46.08-15.36 69.12-12.8 35.84 5.12 23.04 35.84 28.16 58.88 0 5.12 5.12 7.68 10.24 12.8v43.52c-30.72 2.56-61.44 2.56-89.6 2.56z" p-id="8182" fill="#8a8a8a"></path><path d="M622.08 25.6c23.04 15.36 46.08 30.72 66.56 51.2 7.68 7.68 10.24 33.28 7.68 38.4-40.96 25.6-17.92 76.8-43.52 104.96-5.12-20.48-2.56-48.64-15.36-64-12.8-15.36-40.96-17.92-64-25.6-43.52-12.8-51.2-5.12-43.52 38.4v20.48c-2.56 0-7.68 2.56-10.24 2.56-7.68-20.48-12.8-38.4-20.48-58.88-7.68-17.92-15.36-38.4-28.16-64 25.6-15.36 53.76-28.16 81.92-43.52h69.12z" p-id="8183" fill="#8a8a8a"></path><path d="M491.52 819.2c10.24 48.64 23.04 97.28 33.28 145.92-12.8 7.68-23.04 12.8-33.28 20.48h-89.6c-25.6-15.36-25.6-84.48-2.56-107.52 5.12-5.12 17.92-7.68 17.92-12.8-2.56-58.88 48.64-35.84 74.24-46.08z" p-id="8184" fill="#8a8a8a"></path><path d="M465.92 819.2c-33.28-17.92-66.56-33.28-87.04-43.52 15.36-148.48 89.6-268.8 76.8-409.6-43.52 25.6-87.04 48.64-128 71.68-7.68 2.56-17.92 2.56-28.16 2.56 7.68-56.32 46.08-87.04 89.6-110.08 48.64-23.04 99.84-40.96 117.76-102.4 20.48 30.72 38.4 58.88 66.56 97.28 25.6-40.96 43.52-69.12 66.56-107.52 30.72 33.28 66.56 71.68 99.84 112.64 35.84 43.52 10.24 122.88-46.08 138.24-30.72 7.68-43.52 20.48-28.16 53.76 5.12 12.8-2.56 28.16 0 43.52 5.12 25.6 15.36 51.2 20.48 76.8 7.68 30.72 10.24 64 15.36 94.72 2.56 12.8 7.68 23.04 12.8 43.52-28.16 7.68-64 23.04-99.84 25.6-35.84 2.56-64-17.92-58.88-64 2.56-35.84 0-71.68-7.68-107.52-7.68 48.64-15.36 99.84-23.04 143.36-23.04 12.8-40.96 28.16-58.88 40.96-2.56 0 0 0 0 0z" p-id="8185" fill="#8a8a8a"></path></svg>